<?xml version="1.0" encoding="utf-8"?>
<!-- Generator: Adobe Illustrator 16.0.0, SVG Export Plug-In . SVG Version: 6.00 Build 0)  -->
<!DOCTYPE svg PUBLIC "-//W3C//DTD SVG 1.1//EN" "http://www.w3.org/Graphics/SVG/1.1/DTD/svg11.dtd">
<svg version="1.1" id="Layer_1" xmlns="http://www.w3.org/2000/svg" xmlns:xlink="http://www.w3.org/1999/xlink" x="0px" y="0px"
	 width="50px" height="50px" viewBox="0 0 50 50" enable-background="new 0 0 50 50" xml:space="preserve">
<g>
	<path d="M37.017,10.948c-1.934-0.912-5.361-2.343-6.619-1.702c-0.76,0.391-2.084,2.876-3.399,5.731
		c0.164-0.01,0.326-0.04,0.489-0.04c0.45,0,0.907,0.061,1.362,0.15c1.042-2.225,1.967-4.013,2.29-4.298
		c0.542-0.138,2.938,0.665,5.143,1.71c0.424,0.195,0.937,0.019,1.143-0.41C37.626,11.661,37.442,11.151,37.017,10.948z"/>
	<path d="M32.648,20.501c-0.593-5.724-6.98-5.634-10.06-2.873c-3.078-2.761-9.464-2.851-10.057,2.873
		c-0.635,6.106,6.673,11.06,9.2,12.58v5.52l-7.717,2.314h17.147l-7.716-2.314v-5.521C25.978,31.555,33.277,26.603,32.648,20.501z"/>
</g>
</svg>
